<?xml version="1.0" encoding="UTF-8" standalone="no"?>
<!DOCTYPE svg PUBLIC "-//W3C//DTD SVG 1.1//EN" "http://www.w3.org/Graphics/SVG/1.1/DTD/svg11.dtd">
<svg width="100%" height="100%" viewBox="0 0 512 512" version="1.1" xmlns="http://www.w3.org/2000/svg" xmlns:xlink="http://www.w3.org/1999/xlink" xml:space="preserve" xmlns:serif="http://www.serif.com/" style="fill-rule:evenodd;clip-rule:evenodd;stroke-linejoin:round;stroke-miterlimit:1.41421;">
    <g transform="matrix(1,0,0,1,-532,0)">
        <g id="Artboard1" transform="matrix(1,0,0,1,3.90966,0)">
            <rect x="528.09" y="0" width="512" height="512" style="fill:none;"/>
            <g transform="matrix(2.93129,0,0,2.93129,531.851,145.935)">
                <path d="M42.824,68.642L44.231,68.455C44.392,69.252 44.667,69.826 45.055,70.178C45.443,70.529 45.916,70.705 46.473,70.705C47.134,70.705 47.693,70.476 48.149,70.017C48.604,69.559 48.832,68.991 48.832,68.314C48.832,67.668 48.621,67.136 48.199,66.717C47.777,66.297 47.241,66.088 46.59,66.088C46.324,66.088 45.994,66.14 45.598,66.244L45.754,65.01C45.848,65.02 45.923,65.025 45.981,65.025C46.58,65.025 47.119,64.869 47.598,64.556C48.077,64.244 48.317,63.762 48.317,63.111C48.317,62.596 48.142,62.168 47.793,61.83C47.444,61.491 46.994,61.322 46.442,61.322C45.895,61.322 45.439,61.494 45.074,61.838C44.71,62.181 44.475,62.697 44.371,63.385L42.965,63.135C43.137,62.192 43.528,61.461 44.137,60.943C44.746,60.425 45.504,60.166 46.41,60.166C47.035,60.166 47.611,60.3 48.137,60.568C48.663,60.836 49.065,61.202 49.344,61.666C49.623,62.129 49.762,62.622 49.762,63.142C49.762,63.637 49.629,64.088 49.363,64.494C49.098,64.9 48.705,65.223 48.184,65.463C48.861,65.619 49.387,65.943 49.762,66.435C50.137,66.928 50.324,67.543 50.324,68.283C50.324,69.283 49.96,70.131 49.231,70.826C48.501,71.521 47.58,71.869 46.465,71.869C45.46,71.869 44.625,71.569 43.961,70.97C43.297,70.372 42.918,69.595 42.824,68.642ZM135.309,63.017L133.91,63.127C133.785,62.575 133.608,62.174 133.379,61.924C132.999,61.523 132.53,61.322 131.973,61.322C131.525,61.322 131.132,61.447 130.793,61.697C130.351,62.02 130.002,62.491 129.746,63.111C129.491,63.731 129.358,64.614 129.348,65.76C129.686,65.244 130.101,64.861 130.59,64.611C131.08,64.361 131.593,64.236 132.129,64.236C133.067,64.236 133.865,64.581 134.524,65.271C135.183,65.961 135.512,66.853 135.512,67.947C135.512,68.666 135.357,69.334 135.047,69.951C134.737,70.568 134.311,71.041 133.77,71.369C133.228,71.697 132.614,71.861 131.926,71.861C130.754,71.861 129.798,71.43 129.059,70.568C128.319,69.706 127.949,68.286 127.949,66.306C127.949,64.093 128.358,62.484 129.176,61.478C129.89,60.603 130.851,60.166 132.059,60.166C132.96,60.166 133.698,60.418 134.274,60.924C134.849,61.429 135.194,62.127 135.309,63.017ZM5.129,65.455C4.546,65.241 4.113,64.937 3.832,64.541C3.551,64.145 3.41,63.671 3.41,63.119C3.41,62.286 3.71,61.585 4.309,61.017C4.908,60.45 5.705,60.166 6.699,60.166C7.699,60.166 8.504,60.456 9.113,61.037C9.723,61.618 10.027,62.325 10.027,63.158C10.027,63.689 9.888,64.152 9.609,64.545C9.331,64.938 8.908,65.241 8.34,65.455C9.043,65.684 9.578,66.054 9.945,66.564C10.313,67.075 10.496,67.684 10.496,68.392C10.496,69.372 10.15,70.194 9.457,70.861C8.764,71.528 7.853,71.861 6.723,71.861C5.593,71.861 4.681,71.526 3.988,70.857C3.296,70.188 2.949,69.353 2.949,68.353C2.949,67.609 3.138,66.985 3.516,66.482C3.893,65.98 4.431,65.637 5.129,65.455ZM51.715,68.666L53.192,68.541C53.301,69.26 53.555,69.8 53.953,70.162C54.352,70.524 54.832,70.705 55.395,70.705C56.072,70.705 56.645,70.45 57.113,69.939C57.582,69.429 57.816,68.752 57.816,67.908C57.816,67.106 57.591,66.473 57.141,66.01C56.69,65.546 56.1,65.314 55.371,65.314C54.918,65.314 54.509,65.417 54.145,65.623C53.78,65.829 53.494,66.096 53.285,66.424L51.965,66.252L53.074,60.369L58.77,60.369L58.77,61.713L54.199,61.713L53.582,64.791C54.27,64.312 54.991,64.072 55.746,64.072C56.746,64.072 57.59,64.418 58.277,65.111C58.965,65.804 59.309,66.694 59.309,67.783C59.309,68.819 59.007,69.715 58.402,70.47C57.668,71.398 56.665,71.861 55.395,71.861C54.353,71.861 53.503,71.569 52.844,70.986C52.185,70.403 51.809,69.629 51.715,68.666ZM108.614,63.017L107.215,63.127C107.09,62.575 106.913,62.174 106.684,61.924C106.304,61.523 105.835,61.322 105.278,61.322C104.83,61.322 104.437,61.447 104.098,61.697C103.655,62.02 103.306,62.491 103.051,63.111C102.796,63.731 102.663,64.614 102.653,65.76C102.991,65.244 103.405,64.861 103.895,64.611C104.385,64.361 104.898,64.236 105.434,64.236C106.372,64.236 107.17,64.581 107.829,65.271C108.487,65.961 108.817,66.853 108.817,67.947C108.817,68.666 108.662,69.334 108.352,69.951C108.042,70.568 107.616,71.041 107.075,71.369C106.533,71.697 105.918,71.861 105.231,71.861C104.059,71.861 103.103,71.43 102.364,70.568C101.624,69.706 101.254,68.286 101.254,66.306C101.254,64.093 101.663,62.484 102.481,61.478C103.194,60.603 104.155,60.166 105.364,60.166C106.265,60.166 107.003,60.418 107.579,60.924C108.154,61.429 108.499,62.127 108.614,63.017ZM94.583,65.455C93.999,65.241 93.567,64.937 93.286,64.541C93.004,64.145 92.864,63.671 92.864,63.119C92.864,62.286 93.163,61.585 93.762,61.017C94.361,60.45 95.158,60.166 96.153,60.166C97.153,60.166 97.958,60.456 98.567,61.037C99.176,61.618 99.481,62.325 99.481,63.158C99.481,63.689 99.342,64.152 99.063,64.545C98.784,64.938 98.361,65.241 97.793,65.455C98.497,65.684 99.032,66.054 99.399,66.564C99.766,67.075 99.95,67.684 99.95,68.392C99.95,69.372 99.603,70.194 98.911,70.861C98.218,71.528 97.306,71.861 96.176,71.861C95.046,71.861 94.135,71.526 93.442,70.857C92.749,70.188 92.403,69.353 92.403,68.353C92.403,67.609 92.592,66.985 92.969,66.482C93.347,65.98 93.885,65.637 94.583,65.455ZM117.606,70.314L117.606,71.666L110.036,71.666C110.025,71.327 110.08,71.002 110.2,70.689C110.392,70.174 110.701,69.666 111.125,69.166C111.55,68.666 112.163,68.088 112.965,67.431C114.21,66.411 115.051,65.602 115.489,65.006C115.926,64.409 116.145,63.846 116.145,63.314C116.145,62.757 115.946,62.287 115.547,61.904C115.149,61.521 114.629,61.33 113.989,61.33C113.312,61.33 112.77,61.533 112.364,61.939C111.957,62.346 111.752,62.908 111.746,63.627L110.301,63.478C110.4,62.4 110.773,61.579 111.418,61.014C112.064,60.448 112.931,60.166 114.02,60.166C115.119,60.166 115.989,60.471 116.629,61.08C117.27,61.689 117.59,62.445 117.59,63.346C117.59,63.804 117.496,64.254 117.309,64.697C117.121,65.14 116.81,65.606 116.375,66.096C115.94,66.585 115.218,67.257 114.207,68.111C113.364,68.819 112.822,69.3 112.582,69.553C112.343,69.805 112.145,70.059 111.989,70.314L117.606,70.314ZM72.652,71.666L71.207,71.666C71.223,70.765 71.4,69.676 71.738,68.4C72.077,67.124 72.562,65.894 73.195,64.709C73.828,63.524 74.501,62.525 75.215,61.713L69.605,61.713L69.605,60.361L77.019,60.361L77.019,61.455C76.29,62.231 75.568,63.262 74.852,64.549C74.135,65.835 73.582,67.158 73.191,68.517C72.91,69.476 72.73,70.525 72.652,71.666ZM125.028,67.635L126.574,67.635L126.574,68.924L125.028,68.924L125.028,71.666L123.621,71.666L123.621,68.924L118.653,68.924L118.653,67.635L123.879,60.213L125.028,60.213L125.028,67.635ZM68.004,70.314L68.004,71.666L60.434,71.666C60.423,71.327 60.478,71.002 60.598,70.689C60.79,70.174 61.099,69.666 61.523,69.166C61.948,68.666 62.561,68.088 63.363,67.431C64.608,66.411 65.449,65.602 65.887,65.006C66.324,64.409 66.543,63.846 66.543,63.314C66.543,62.757 66.344,62.287 65.945,61.904C65.547,61.521 65.027,61.33 64.387,61.33C63.71,61.33 63.168,61.533 62.762,61.939C62.356,62.346 62.15,62.908 62.145,63.627L60.699,63.478C60.798,62.4 61.171,61.579 61.816,61.014C62.462,60.448 63.329,60.166 64.418,60.166C65.517,60.166 66.387,60.471 67.027,61.08C67.668,61.689 67.988,62.445 67.988,63.346C67.988,63.804 67.895,64.254 67.707,64.697C67.52,65.14 67.208,65.606 66.773,66.096C66.339,66.585 65.616,67.257 64.605,68.111C63.762,68.819 63.22,69.3 62.981,69.553C62.741,69.805 62.543,70.059 62.387,70.314L68.004,70.314ZM164.407,71.666L162.961,71.666C162.977,70.765 163.154,69.676 163.493,68.4C163.831,67.124 164.317,65.894 164.95,64.709C165.583,63.524 166.256,62.525 166.969,61.713L161.36,61.713L161.36,60.361L168.774,60.361L168.774,61.455C168.045,62.231 167.322,63.262 166.606,64.549C165.89,65.835 165.336,67.158 164.946,68.517C164.665,69.476 164.485,70.525 164.407,71.666ZM39.832,67.635L41.379,67.635L41.379,68.924L39.832,68.924L39.832,71.666L38.426,71.666L38.426,68.924L33.457,68.924L33.457,67.635L38.684,60.213L39.832,60.213L39.832,67.635ZM129.567,67.955C129.567,68.439 129.67,68.903 129.875,69.346C130.081,69.788 130.369,70.125 130.739,70.357C131.108,70.589 131.496,70.705 131.903,70.705C132.496,70.705 133.007,70.465 133.434,69.986C133.861,69.507 134.074,68.856 134.074,68.033C134.074,67.241 133.864,66.618 133.442,66.162C133.02,65.706 132.489,65.478 131.848,65.478C131.212,65.478 130.673,65.706 130.231,66.162C129.788,66.618 129.567,67.215 129.567,67.955ZM4.395,68.361C4.395,68.762 4.49,69.15 4.68,69.525C4.87,69.9 5.152,70.191 5.527,70.396C5.902,70.602 6.306,70.705 6.738,70.705C7.41,70.705 7.965,70.489 8.402,70.056C8.84,69.624 9.059,69.075 9.059,68.408C9.059,67.731 8.833,67.171 8.383,66.728C7.932,66.286 7.369,66.064 6.692,66.064C6.03,66.064 5.482,66.283 5.047,66.721C4.612,67.158 4.395,67.705 4.395,68.361ZM102.872,67.955C102.872,68.439 102.974,68.903 103.18,69.346C103.386,69.788 103.674,70.125 104.043,70.357C104.413,70.589 104.801,70.705 105.207,70.705C105.801,70.705 106.312,70.465 106.739,69.986C107.166,69.507 107.379,68.856 107.379,68.033C107.379,67.241 107.168,66.618 106.747,66.162C106.325,65.706 105.793,65.478 105.153,65.478C104.517,65.478 103.978,65.706 103.536,66.162C103.093,66.618 102.872,67.215 102.872,67.955ZM93.848,68.361C93.848,68.762 93.943,69.15 94.133,69.525C94.323,69.9 94.606,70.191 94.981,70.396C95.356,70.602 95.76,70.705 96.192,70.705C96.864,70.705 97.418,70.489 97.856,70.056C98.293,69.624 98.512,69.075 98.512,68.408C98.512,67.731 98.287,67.171 97.836,66.728C97.386,66.286 96.822,66.064 96.145,66.064C95.484,66.064 94.935,66.283 94.501,66.721C94.066,67.158 93.848,67.705 93.848,68.361ZM123.621,67.635L123.621,62.471L120.035,67.635L123.621,67.635ZM38.426,67.635L38.426,62.471L34.84,67.635L38.426,67.635ZM142.385,0L142.385,65.302L141,65.302L141,0L142.385,0ZM87,0L87,65.302L85.5,65.302L85.5,0L87,0ZM18,0L18,65.302L16.5,65.302L16.5,0L18,0ZM153.001,0L153.001,65.302L151.5,65.302L151.5,0L153.001,0ZM84,0L84,65.302L82.5,65.302L82.5,0L84,0ZM156,0L156,65.302L154.5,65.302L154.5,0L156,0ZM22.5,0L22.5,65.302L19.385,65.302L19.385,0L22.5,0ZM28.5,0L28.5,65.302L23.885,65.302L23.885,0L28.5,0ZM15,0L15,65.302L13.5,65.302L13.5,0L15,0ZM148.385,0L148.385,65.302L147,65.302L147,0L148.385,0ZM4.848,63.072C4.848,63.614 5.022,64.056 5.371,64.4C5.72,64.744 6.173,64.916 6.731,64.916C7.272,64.916 7.716,64.745 8.063,64.404C8.409,64.063 8.582,63.645 8.582,63.15C8.582,62.635 8.404,62.201 8.047,61.849C7.69,61.498 7.246,61.322 6.715,61.322C6.179,61.322 5.733,61.494 5.379,61.838C5.025,62.181 4.848,62.593 4.848,63.072ZM94.301,63.072C94.301,63.614 94.476,64.056 94.825,64.4C95.174,64.744 95.627,64.916 96.184,64.916C96.726,64.916 97.17,64.745 97.516,64.404C97.862,64.063 98.036,63.645 98.036,63.15C98.036,62.635 97.857,62.201 97.501,61.849C97.144,61.498 96.7,61.322 96.168,61.322C95.632,61.322 95.187,61.494 94.833,61.838C94.478,62.181 94.301,62.593 94.301,63.072ZM64.5,0L64.5,57.221L63.116,57.221L63.116,0L64.5,0ZM89.885,0L89.885,57.221L88.5,57.221L88.5,0L89.885,0ZM94.385,0L94.385,57.221L93,57.221L93,0L94.385,0ZM49.5,0L49.5,57.221L48,57.221L48,0L49.5,0ZM60,0L60,57.221L58.5,57.221L58.5,0L60,0ZM135.001,0L135.001,57.221L133.5,57.221L133.5,0L135.001,0ZM132,0L132,57.221L130.5,57.221L130.5,0L132,0ZM121.501,0L121.501,57.221L120,57.221L120,0L121.501,0ZM31.5,0L31.5,57.221L30,57.221L30,0L31.5,0ZM103.5,0L103.5,57.221L102,57.221L102,0L103.5,0ZM100.5,0L100.5,57.221L99,57.221L99,0L100.5,0ZM70.5,0L70.5,57.221L67.616,57.221L67.616,0L70.5,0ZM39,0L39,57.221L36,57.221L36,0L39,0ZM54,0L54,57.221L51,57.221L51,0L54,0ZM81,0L81,57.221L77.885,57.221L77.885,0L81,0ZM112.616,0L112.616,57.221L109.5,57.221L109.5,0L112.616,0ZM117.116,0L117.116,57.221L114,57.221L114,0L117.116,0ZM127.5,0L127.5,57.221L123,57.221L123,0L127.5,0ZM76.5,0L76.5,57.221L71.885,57.221L71.885,0L76.5,0ZM46.5,0L46.5,57.221L40.5,57.221L40.5,0L46.5,0Z"/>
            </g>
            <g transform="matrix(6.5753,0,0,6.5753,-1166.99,-1840.63)">
                <g transform="matrix(12,0,0,12,270.988,289.586)">
                    <path d="M0.618,-0.263L0.517,-0.263L0.517,-0.66L0.316,-0.66L0.033,-0.226L0.033,-0.145L0.365,-0.145L0.365,0L0.517,0L0.517,-0.145L0.618,-0.145L0.618,-0.263ZM0.309,-0.439C0.33,-0.472 0.353,-0.512 0.367,-0.547L0.369,-0.547L0.365,-0.439L0.365,-0.263L0.193,-0.263L0.309,-0.439Z" style="fill-rule:nonzero;"/>
                </g>
                <g transform="matrix(12,0,0,12,278.74,289.586)">
                    <path d="M0.34,-0.67C0.175,-0.67 0.05,-0.564 0.05,-0.33C0.05,-0.108 0.149,0.01 0.325,0.01C0.486,0.01 0.579,-0.074 0.579,-0.206C0.579,-0.331 0.488,-0.411 0.365,-0.411C0.288,-0.411 0.228,-0.381 0.205,-0.324L0.203,-0.324L0.203,-0.34C0.203,-0.461 0.256,-0.534 0.329,-0.534C0.384,-0.534 0.416,-0.505 0.429,-0.458L0.57,-0.524C0.533,-0.631 0.446,-0.67 0.34,-0.67ZM0.328,-0.295C0.388,-0.295 0.422,-0.263 0.422,-0.207C0.422,-0.151 0.388,-0.119 0.328,-0.119C0.27,-0.119 0.234,-0.153 0.234,-0.207C0.234,-0.261 0.27,-0.295 0.328,-0.295Z" style="fill-rule:nonzero;"/>
                </g>
                <g transform="matrix(12,0,0,12,286.132,289.586)">
                    <path d="M0.06,0L0.555,0L0.555,-0.131L0.4,-0.131C0.358,-0.131 0.3,-0.129 0.267,-0.127L0.267,-0.128C0.446,-0.231 0.547,-0.329 0.547,-0.458C0.547,-0.561 0.473,-0.67 0.298,-0.67C0.15,-0.67 0.042,-0.591 0.039,-0.445L0.186,-0.4C0.188,-0.488 0.224,-0.535 0.287,-0.535C0.346,-0.535 0.376,-0.497 0.376,-0.446C0.376,-0.353 0.286,-0.251 0.06,-0.11L0.06,0Z" style="fill-rule:nonzero;"/>
                </g>
                <g transform="matrix(12,0,0,12,293.284,289.586)">
                    <path d="M0.299,-0.67C0.171,-0.67 0.069,-0.622 0.046,-0.499L0.197,-0.448C0.203,-0.511 0.238,-0.537 0.289,-0.537C0.339,-0.537 0.368,-0.51 0.367,-0.459C0.367,-0.408 0.338,-0.383 0.275,-0.383L0.246,-0.383L0.246,-0.274L0.283,-0.274C0.35,-0.274 0.38,-0.254 0.381,-0.203C0.382,-0.152 0.347,-0.123 0.289,-0.123C0.23,-0.123 0.194,-0.15 0.187,-0.221L0.031,-0.154C0.068,-0.038 0.152,0.01 0.291,0.01C0.44,0.01 0.547,-0.066 0.547,-0.18C0.547,-0.297 0.456,-0.33 0.41,-0.33L0.41,-0.333C0.448,-0.333 0.534,-0.374 0.534,-0.485C0.534,-0.597 0.449,-0.67 0.299,-0.67Z" style="fill-rule:nonzero;"/>
                </g>
                <g transform="matrix(12,0,0,12,300.4,289.586)">
                    <path d="M0.34,-0.67C0.175,-0.67 0.05,-0.564 0.05,-0.33C0.05,-0.108 0.149,0.01 0.325,0.01C0.486,0.01 0.579,-0.074 0.579,-0.206C0.579,-0.331 0.488,-0.411 0.365,-0.411C0.288,-0.411 0.228,-0.381 0.205,-0.324L0.203,-0.324L0.203,-0.34C0.203,-0.461 0.256,-0.534 0.329,-0.534C0.384,-0.534 0.416,-0.505 0.429,-0.458L0.57,-0.524C0.533,-0.631 0.446,-0.67 0.34,-0.67ZM0.328,-0.295C0.388,-0.295 0.422,-0.263 0.422,-0.207C0.422,-0.151 0.388,-0.119 0.328,-0.119C0.27,-0.119 0.234,-0.153 0.234,-0.207C0.234,-0.261 0.27,-0.295 0.328,-0.295Z" style="fill-rule:nonzero;"/>
                </g>
                <g transform="matrix(12,0,0,12,307.792,289.586)">
                    <path d="M0.34,-0.67C0.175,-0.67 0.05,-0.564 0.05,-0.33C0.05,-0.108 0.149,0.01 0.325,0.01C0.486,0.01 0.579,-0.074 0.579,-0.206C0.579,-0.331 0.488,-0.411 0.365,-0.411C0.288,-0.411 0.228,-0.381 0.205,-0.324L0.203,-0.324L0.203,-0.34C0.203,-0.461 0.256,-0.534 0.329,-0.534C0.384,-0.534 0.416,-0.505 0.429,-0.458L0.57,-0.524C0.533,-0.631 0.446,-0.67 0.34,-0.67ZM0.328,-0.295C0.388,-0.295 0.422,-0.263 0.422,-0.207C0.422,-0.151 0.388,-0.119 0.328,-0.119C0.27,-0.119 0.234,-0.153 0.234,-0.207C0.234,-0.261 0.27,-0.295 0.328,-0.295Z" style="fill-rule:nonzero;"/>
                </g>
                <g transform="matrix(12,0,0,12,315.184,289.586)">
                    <path d="M0.06,0L0.555,0L0.555,-0.131L0.4,-0.131C0.358,-0.131 0.3,-0.129 0.267,-0.127L0.267,-0.128C0.446,-0.231 0.547,-0.329 0.547,-0.458C0.547,-0.561 0.473,-0.67 0.298,-0.67C0.15,-0.67 0.042,-0.591 0.039,-0.445L0.186,-0.4C0.188,-0.488 0.224,-0.535 0.287,-0.535C0.346,-0.535 0.376,-0.497 0.376,-0.446C0.376,-0.353 0.286,-0.251 0.06,-0.11L0.06,0Z" style="fill-rule:nonzero;"/>
                </g>
            </g>
        </g>
    </g>
</svg>
