<?xml version="1.0" encoding="UTF-8" standalone="no"?>
<!DOCTYPE svg PUBLIC "-//W3C//DTD SVG 1.1//EN" "http://www.w3.org/Graphics/SVG/1.1/DTD/svg11.dtd">
<svg width="100%" height="100%" viewBox="0 0 512 512" version="1.1" xmlns="http://www.w3.org/2000/svg" xmlns:xlink="http://www.w3.org/1999/xlink" xml:space="preserve" xmlns:serif="http://www.serif.com/" style="fill-rule:evenodd;clip-rule:evenodd;stroke-linejoin:round;stroke-miterlimit:1.41421;">
    <g transform="matrix(1,0,0,1,0,-1066)">
        <rect id="Shaving-Cream" serif:id="Shaving Cream" x="0" y="1066" width="512" height="512" style="fill:none;"/>
        <clipPath id="_clip1">
            <rect id="Shaving-Cream1" serif:id="Shaving Cream" x="0" y="1066" width="512" height="512"/>
        </clipPath>
        <g clip-path="url(#_clip1)">
            <g transform="matrix(1.53682,-0.887282,0.5,0.866025,-861.712,533.558)">
                <rect x="0" y="1400.4" width="512" height="48.172" style="fill:rgb(235,235,235);"/>
            </g>
            <g transform="matrix(1.53682,-0.887282,0.5,0.866025,-813.54,616.994)">
                <rect x="0" y="1400.4" width="512" height="48.172" style="fill:rgb(235,235,235);"/>
            </g>
            <g transform="matrix(1.53682,-0.887282,0.5,0.866025,-837.626,575.276)">
                <rect x="0" y="1400.4" width="512" height="48.172" style="fill:rgb(255,95,101);"/>
            </g>
            <g transform="matrix(1.53682,-0.887282,0.5,0.866025,-909.884,452.856)">
                <rect x="0" y="1400.4" width="512" height="48.172" style="fill:rgb(235,235,235);"/>
            </g>
            <g transform="matrix(1.53682,-0.887282,0.5,0.866025,-885.798,491.84)">
                <rect x="0" y="1400.4" width="512" height="48.172" style="fill:rgb(255,95,101);"/>
            </g>
            <g transform="matrix(0.644993,0,0,0.16622,90.8819,866.586)">
                <path d="M512,1424.49C512,1411.19 509.219,1400.4 505.793,1400.4L6.207,1400.4C2.781,1400.4 0,1411.19 0,1424.49C0,1437.78 2.781,1448.57 6.207,1448.57L505.793,1448.57C509.219,1448.57 512,1437.78 512,1424.49Z" style="fill:rgb(255,95,101);"/>
            </g>
            <g transform="matrix(0.644993,0,0,0.16622,90.8819,955.025)">
                <path d="M512,1424.49C512,1411.19 509.219,1400.4 505.793,1400.4L6.207,1400.4C2.781,1400.4 0,1411.19 0,1424.49C0,1437.78 2.781,1448.57 6.207,1448.57L505.793,1448.57C509.219,1448.57 512,1437.78 512,1424.49Z" style="fill:rgb(255,95,101);"/>
            </g>
            <g transform="matrix(1.53682,-0.887282,0.5,0.866025,-789.455,658.712)">
                <rect x="0" y="1400.4" width="512" height="48.172" style="fill:rgb(255,95,101);"/>
            </g>
            <g transform="matrix(1,0,0,1,112.573,52.8368)">
                <g transform="matrix(24,0,0,24,17.5227,1173.26)">
                    <path d="M0.187,-0.725L0.08,-0.725L0.08,-0.131C0.08,-0.034 0.121,0.01 0.21,0.01C0.239,0.01 0.271,0.004 0.293,-0.007L0.305,-0.093C0.279,-0.083 0.264,-0.08 0.239,-0.08C0.199,-0.08 0.187,-0.097 0.187,-0.146L0.187,-0.725Z" style="fill:rgb(235,235,235);fill-rule:nonzero;"/>
                </g>
                <g transform="matrix(24,0,0,24,25.0347,1173.26)">
                    <path d="M0.515,-0.07C0.488,-0.07 0.478,-0.082 0.478,-0.107L0.478,-0.333C0.478,-0.453 0.392,-0.51 0.267,-0.51C0.158,-0.51 0.081,-0.459 0.057,-0.38L0.14,-0.336C0.161,-0.399 0.207,-0.426 0.269,-0.426C0.334,-0.426 0.371,-0.387 0.371,-0.327L0.371,-0.3L0.244,-0.278C0.113,-0.255 0.049,-0.198 0.049,-0.121C0.049,-0.034 0.118,0.01 0.212,0.01C0.286,0.01 0.35,-0.017 0.381,-0.064C0.392,-0.009 0.428,0.01 0.483,0.01C0.508,0.01 0.529,0.005 0.545,-0.002L0.552,-0.074C0.541,-0.071 0.528,-0.07 0.515,-0.07ZM0.235,-0.071C0.188,-0.071 0.16,-0.091 0.16,-0.128C0.16,-0.168 0.194,-0.191 0.262,-0.204L0.371,-0.226L0.371,-0.166C0.371,-0.106 0.302,-0.071 0.235,-0.071Z" style="fill:rgb(235,235,235);fill-rule:nonzero;"/>
                </g>
                <g transform="matrix(24,0,0,24,38.2347,1173.26)">
                    <path d="M0.382,-0.111C0.36,-0.091 0.335,-0.079 0.301,-0.079C0.257,-0.079 0.228,-0.101 0.228,-0.15L0.228,-0.416L0.403,-0.416L0.403,-0.5L0.228,-0.5L0.228,-0.647L0.121,-0.617L0.121,-0.5L0.026,-0.5L0.026,-0.416L0.121,-0.416L0.121,-0.132C0.122,-0.029 0.188,0.01 0.274,0.01C0.328,0.01 0.375,-0.006 0.407,-0.033L0.382,-0.111Z" style="fill:rgb(235,235,235);fill-rule:nonzero;"/>
                </g>
                <g transform="matrix(24,0,0,24,48.5067,1173.26)">
                    <path d="M0.352,-0.51C0.283,-0.51 0.224,-0.483 0.19,-0.42L0.19,-0.725L0.083,-0.725L0.083,0L0.19,0L0.19,-0.264C0.19,-0.379 0.26,-0.422 0.326,-0.422C0.387,-0.422 0.433,-0.389 0.433,-0.29L0.433,0L0.54,0L0.54,-0.324C0.54,-0.449 0.458,-0.51 0.352,-0.51Z" style="fill:rgb(235,235,235);fill-rule:nonzero;"/>
                </g>
                <g transform="matrix(24,0,0,24,63.3627,1173.26)">
                    <path d="M0.53,-0.265C0.53,-0.41 0.448,-0.51 0.298,-0.51C0.142,-0.51 0.054,-0.413 0.054,-0.25C0.054,-0.087 0.147,0.01 0.305,0.01C0.415,0.01 0.484,-0.032 0.52,-0.106L0.431,-0.143C0.415,-0.099 0.371,-0.075 0.305,-0.075C0.225,-0.075 0.172,-0.122 0.16,-0.21L0.526,-0.21C0.528,-0.223 0.53,-0.246 0.53,-0.265ZM0.298,-0.425C0.372,-0.425 0.419,-0.376 0.43,-0.292L0.16,-0.292C0.172,-0.378 0.22,-0.425 0.298,-0.425Z" style="fill:rgb(235,235,235);fill-rule:nonzero;"/>
                </g>
                <g transform="matrix(24,0,0,24,77.3067,1173.26)">
                    <path d="M0.341,-0.51C0.263,-0.51 0.21,-0.475 0.183,-0.41L0.174,-0.5L0.083,-0.5L0.083,0L0.19,0L0.19,-0.265C0.19,-0.367 0.256,-0.415 0.316,-0.415C0.343,-0.415 0.365,-0.41 0.379,-0.402L0.396,-0.5C0.382,-0.507 0.361,-0.51 0.341,-0.51Z" style="fill:rgb(235,235,235);fill-rule:nonzero;"/>
                </g>
                <g transform="matrix(24,0,0,24,94.1547,1173.26)">
                    <path d="M0.382,-0.111C0.36,-0.091 0.335,-0.079 0.301,-0.079C0.257,-0.079 0.228,-0.101 0.228,-0.15L0.228,-0.416L0.403,-0.416L0.403,-0.5L0.228,-0.5L0.228,-0.647L0.121,-0.617L0.121,-0.5L0.026,-0.5L0.026,-0.416L0.121,-0.416L0.121,-0.132C0.122,-0.029 0.188,0.01 0.274,0.01C0.328,0.01 0.375,-0.006 0.407,-0.033L0.382,-0.111Z" style="fill:rgb(235,235,235);fill-rule:nonzero;"/>
                </g>
                <g transform="matrix(24,0,0,24,104.331,1173.26)">
                    <path d="M0.533,-0.5L0.422,-0.5L0.318,-0.195L0.284,-0.092L0.255,-0.186L0.145,-0.5L0.025,-0.5L0.181,-0.121L0.233,0.003L0.211,0.057C0.189,0.115 0.161,0.129 0.124,0.129C0.093,0.129 0.065,0.121 0.042,0.093L0.011,0.175C0.041,0.203 0.077,0.215 0.129,0.215C0.219,0.215 0.27,0.175 0.314,0.059L0.533,-0.5Z" style="fill:rgb(235,235,235);fill-rule:nonzero;"/>
                </g>
                <g transform="matrix(24,0,0,24,117.435,1173.26)">
                    <path d="M0.352,-0.51C0.272,-0.51 0.211,-0.468 0.182,-0.407L0.177,-0.5L0.083,-0.5L0.083,0.21L0.19,0.21L0.19,-0.08C0.22,-0.026 0.278,0.01 0.352,0.01C0.488,0.01 0.573,-0.087 0.573,-0.251C0.573,-0.414 0.488,-0.51 0.352,-0.51ZM0.328,-0.077C0.247,-0.077 0.195,-0.135 0.19,-0.231L0.19,-0.269C0.195,-0.366 0.247,-0.424 0.328,-0.424C0.414,-0.424 0.466,-0.359 0.466,-0.25C0.466,-0.141 0.414,-0.077 0.328,-0.077Z" style="fill:rgb(235,235,235);fill-rule:nonzero;"/>
                </g>
                <g transform="matrix(24,0,0,24,132.531,1173.26)">
                    <path d="M0.53,-0.265C0.53,-0.41 0.448,-0.51 0.298,-0.51C0.142,-0.51 0.054,-0.413 0.054,-0.25C0.054,-0.087 0.147,0.01 0.305,0.01C0.415,0.01 0.484,-0.032 0.52,-0.106L0.431,-0.143C0.415,-0.099 0.371,-0.075 0.305,-0.075C0.225,-0.075 0.172,-0.122 0.16,-0.21L0.526,-0.21C0.528,-0.223 0.53,-0.246 0.53,-0.265ZM0.298,-0.425C0.372,-0.425 0.419,-0.376 0.43,-0.292L0.16,-0.292C0.172,-0.378 0.22,-0.425 0.298,-0.425Z" style="fill:rgb(235,235,235);fill-rule:nonzero;"/>
                </g>
                <g transform="matrix(24,0,0,24,154.275,1173.26)">
                    <path d="M0.352,-0.51C0.278,-0.51 0.22,-0.474 0.19,-0.42L0.19,-0.725L0.083,-0.725L0.083,0L0.177,0L0.182,-0.093C0.211,-0.032 0.272,0.01 0.352,0.01C0.488,0.01 0.573,-0.086 0.573,-0.249C0.573,-0.413 0.488,-0.51 0.352,-0.51ZM0.328,-0.076C0.247,-0.076 0.195,-0.134 0.19,-0.231L0.19,-0.269C0.195,-0.365 0.247,-0.423 0.328,-0.423C0.414,-0.423 0.466,-0.359 0.466,-0.25C0.466,-0.141 0.414,-0.076 0.328,-0.076Z" style="fill:rgb(235,235,235);fill-rule:nonzero;"/>
                </g>
                <g transform="matrix(24,0,0,24,169.371,1173.26)">
                    <path d="M0.341,-0.51C0.263,-0.51 0.21,-0.475 0.183,-0.41L0.174,-0.5L0.083,-0.5L0.083,0L0.19,0L0.19,-0.265C0.19,-0.367 0.256,-0.415 0.316,-0.415C0.343,-0.415 0.365,-0.41 0.379,-0.402L0.396,-0.5C0.382,-0.507 0.361,-0.51 0.341,-0.51Z" style="fill:rgb(235,235,235);fill-rule:nonzero;"/>
                </g>
                <g transform="matrix(24,0,0,24,179.307,1173.26)">
                    <path d="M0.429,-0.5L0.429,-0.23C0.429,-0.124 0.365,-0.078 0.289,-0.078C0.226,-0.078 0.186,-0.106 0.186,-0.199L0.186,-0.5L0.079,-0.5L0.079,-0.171C0.079,-0.041 0.159,0.01 0.259,0.01C0.339,0.01 0.402,-0.018 0.437,-0.081L0.441,0L0.536,0L0.536,-0.5L0.429,-0.5Z" style="fill:rgb(235,235,235);fill-rule:nonzero;"/>
                </g>
                <g transform="matrix(24,0,0,24,194.163,1173.26)">
                    <path d="M0.264,0.01C0.402,0.01 0.482,-0.053 0.482,-0.141C0.482,-0.224 0.431,-0.267 0.288,-0.293C0.194,-0.31 0.165,-0.329 0.165,-0.365C0.165,-0.396 0.207,-0.426 0.269,-0.426C0.334,-0.426 0.377,-0.401 0.402,-0.341L0.478,-0.397C0.442,-0.474 0.379,-0.51 0.268,-0.51C0.134,-0.51 0.058,-0.436 0.058,-0.355C0.058,-0.271 0.11,-0.228 0.259,-0.2C0.346,-0.183 0.375,-0.165 0.375,-0.134C0.375,-0.1 0.339,-0.074 0.268,-0.074C0.198,-0.074 0.139,-0.097 0.113,-0.157L0.041,-0.095C0.083,-0.022 0.167,0.01 0.264,0.01Z" style="fill:rgb(235,235,235);fill-rule:nonzero;"/>
                </g>
                <g transform="matrix(24,0,0,24,206.859,1173.26)">
                    <path d="M0.352,-0.51C0.283,-0.51 0.224,-0.483 0.19,-0.42L0.19,-0.725L0.083,-0.725L0.083,0L0.19,0L0.19,-0.264C0.19,-0.379 0.26,-0.422 0.326,-0.422C0.387,-0.422 0.433,-0.389 0.433,-0.29L0.433,0L0.54,0L0.54,-0.324C0.54,-0.449 0.458,-0.51 0.352,-0.51Z" style="fill:rgb(235,235,235);fill-rule:nonzero;"/>
                </g>
                <g transform="matrix(24,0,0,24,221.715,1173.26)">
                    <path d="M0.187,-0.725L0.08,-0.725L0.08,-0.131C0.08,-0.034 0.121,0.01 0.21,0.01C0.239,0.01 0.271,0.004 0.293,-0.007L0.305,-0.093C0.279,-0.083 0.264,-0.08 0.239,-0.08C0.199,-0.08 0.187,-0.097 0.187,-0.146L0.187,-0.725Z" style="fill:rgb(235,235,235);fill-rule:nonzero;"/>
                </g>
                <g transform="matrix(24,0,0,24,229.203,1173.26)">
                    <path d="M0.53,-0.265C0.53,-0.41 0.448,-0.51 0.298,-0.51C0.142,-0.51 0.054,-0.413 0.054,-0.25C0.054,-0.087 0.147,0.01 0.305,0.01C0.415,0.01 0.484,-0.032 0.52,-0.106L0.431,-0.143C0.415,-0.099 0.371,-0.075 0.305,-0.075C0.225,-0.075 0.172,-0.122 0.16,-0.21L0.526,-0.21C0.528,-0.223 0.53,-0.246 0.53,-0.265ZM0.298,-0.425C0.372,-0.425 0.419,-0.376 0.43,-0.292L0.16,-0.292C0.172,-0.378 0.22,-0.425 0.298,-0.425Z" style="fill:rgb(235,235,235);fill-rule:nonzero;"/>
                </g>
                <g transform="matrix(24,0,0,24,243.147,1173.26)">
                    <path d="M0.264,0.01C0.402,0.01 0.482,-0.053 0.482,-0.141C0.482,-0.224 0.431,-0.267 0.288,-0.293C0.194,-0.31 0.165,-0.329 0.165,-0.365C0.165,-0.396 0.207,-0.426 0.269,-0.426C0.334,-0.426 0.377,-0.401 0.402,-0.341L0.478,-0.397C0.442,-0.474 0.379,-0.51 0.268,-0.51C0.134,-0.51 0.058,-0.436 0.058,-0.355C0.058,-0.271 0.11,-0.228 0.259,-0.2C0.346,-0.183 0.375,-0.165 0.375,-0.134C0.375,-0.1 0.339,-0.074 0.268,-0.074C0.198,-0.074 0.139,-0.097 0.113,-0.157L0.041,-0.095C0.083,-0.022 0.167,0.01 0.264,0.01Z" style="fill:rgb(235,235,235);fill-rule:nonzero;"/>
                </g>
                <g transform="matrix(24,0,0,24,255.843,1173.26)">
                    <path d="M0.264,0.01C0.402,0.01 0.482,-0.053 0.482,-0.141C0.482,-0.224 0.431,-0.267 0.288,-0.293C0.194,-0.31 0.165,-0.329 0.165,-0.365C0.165,-0.396 0.207,-0.426 0.269,-0.426C0.334,-0.426 0.377,-0.401 0.402,-0.341L0.478,-0.397C0.442,-0.474 0.379,-0.51 0.268,-0.51C0.134,-0.51 0.058,-0.436 0.058,-0.355C0.058,-0.271 0.11,-0.228 0.259,-0.2C0.346,-0.183 0.375,-0.165 0.375,-0.134C0.375,-0.1 0.339,-0.074 0.268,-0.074C0.198,-0.074 0.139,-0.097 0.113,-0.157L0.041,-0.095C0.083,-0.022 0.167,0.01 0.264,0.01Z" style="fill:rgb(235,235,235);fill-rule:nonzero;"/>
                </g>
                <g transform="matrix(24,0,0,24,68.6067,1197.26)">
                    <path d="M0.264,0.01C0.402,0.01 0.482,-0.053 0.482,-0.141C0.482,-0.224 0.431,-0.267 0.288,-0.293C0.194,-0.31 0.165,-0.329 0.165,-0.365C0.165,-0.396 0.207,-0.426 0.269,-0.426C0.334,-0.426 0.377,-0.401 0.402,-0.341L0.478,-0.397C0.442,-0.474 0.379,-0.51 0.268,-0.51C0.134,-0.51 0.058,-0.436 0.058,-0.355C0.058,-0.271 0.11,-0.228 0.259,-0.2C0.346,-0.183 0.375,-0.165 0.375,-0.134C0.375,-0.1 0.339,-0.074 0.268,-0.074C0.198,-0.074 0.139,-0.097 0.113,-0.157L0.041,-0.095C0.083,-0.022 0.167,0.01 0.264,0.01Z" style="fill:rgb(235,235,235);fill-rule:nonzero;"/>
                </g>
                <g transform="matrix(24,0,0,24,81.3027,1197.26)">
                    <path d="M0.352,-0.51C0.283,-0.51 0.224,-0.483 0.19,-0.42L0.19,-0.725L0.083,-0.725L0.083,0L0.19,0L0.19,-0.264C0.19,-0.379 0.26,-0.422 0.326,-0.422C0.387,-0.422 0.433,-0.389 0.433,-0.29L0.433,0L0.54,0L0.54,-0.324C0.54,-0.449 0.458,-0.51 0.352,-0.51Z" style="fill:rgb(235,235,235);fill-rule:nonzero;"/>
                </g>
                <g transform="matrix(24,0,0,24,96.1587,1197.26)">
                    <path d="M0.515,-0.07C0.488,-0.07 0.478,-0.082 0.478,-0.107L0.478,-0.333C0.478,-0.453 0.392,-0.51 0.267,-0.51C0.158,-0.51 0.081,-0.459 0.057,-0.38L0.14,-0.336C0.161,-0.399 0.207,-0.426 0.269,-0.426C0.334,-0.426 0.371,-0.387 0.371,-0.327L0.371,-0.3L0.244,-0.278C0.113,-0.255 0.049,-0.198 0.049,-0.121C0.049,-0.034 0.118,0.01 0.212,0.01C0.286,0.01 0.35,-0.017 0.381,-0.064C0.392,-0.009 0.428,0.01 0.483,0.01C0.508,0.01 0.529,0.005 0.545,-0.002L0.552,-0.074C0.541,-0.071 0.528,-0.07 0.515,-0.07ZM0.235,-0.071C0.188,-0.071 0.16,-0.091 0.16,-0.128C0.16,-0.168 0.194,-0.191 0.262,-0.204L0.371,-0.226L0.371,-0.166C0.371,-0.106 0.302,-0.071 0.235,-0.071Z" style="fill:rgb(235,235,235);fill-rule:nonzero;"/>
                </g>
                <g transform="matrix(24,0,0,24,109.407,1197.26)">
                    <path d="M0.412,-0.5L0.267,-0.087L0.126,-0.5L0.008,-0.5L0.208,0L0.325,0L0.524,-0.5L0.412,-0.5Z" style="fill:rgb(235,235,235);fill-rule:nonzero;"/>
                </g>
                <g transform="matrix(24,0,0,24,122.103,1197.26)">
                    <path d="M0.53,-0.265C0.53,-0.41 0.448,-0.51 0.298,-0.51C0.142,-0.51 0.054,-0.413 0.054,-0.25C0.054,-0.087 0.147,0.01 0.305,0.01C0.415,0.01 0.484,-0.032 0.52,-0.106L0.431,-0.143C0.415,-0.099 0.371,-0.075 0.305,-0.075C0.225,-0.075 0.172,-0.122 0.16,-0.21L0.526,-0.21C0.528,-0.223 0.53,-0.246 0.53,-0.265ZM0.298,-0.425C0.372,-0.425 0.419,-0.376 0.43,-0.292L0.16,-0.292C0.172,-0.378 0.22,-0.425 0.298,-0.425Z" style="fill:rgb(235,235,235);fill-rule:nonzero;"/>
                </g>
                <g transform="matrix(24,0,0,24,143.847,1197.26)">
                    <path d="M0.303,-0.51C0.147,-0.51 0.054,-0.413 0.054,-0.25C0.054,-0.087 0.147,0.01 0.305,0.01C0.421,0.01 0.496,-0.048 0.524,-0.139L0.426,-0.172C0.413,-0.11 0.372,-0.075 0.303,-0.075C0.215,-0.075 0.162,-0.136 0.162,-0.249C0.162,-0.362 0.214,-0.425 0.303,-0.425C0.365,-0.425 0.403,-0.392 0.42,-0.33L0.52,-0.37C0.489,-0.452 0.424,-0.51 0.303,-0.51Z" style="fill:rgb(235,235,235);fill-rule:nonzero;"/>
                </g>
                <g transform="matrix(24,0,0,24,157.431,1197.26)">
                    <path d="M0.341,-0.51C0.263,-0.51 0.21,-0.475 0.183,-0.41L0.174,-0.5L0.083,-0.5L0.083,0L0.19,0L0.19,-0.265C0.19,-0.367 0.256,-0.415 0.316,-0.415C0.343,-0.415 0.365,-0.41 0.379,-0.402L0.396,-0.5C0.382,-0.507 0.361,-0.51 0.341,-0.51Z" style="fill:rgb(235,235,235);fill-rule:nonzero;"/>
                </g>
                <g transform="matrix(24,0,0,24,167.055,1197.26)">
                    <path d="M0.53,-0.265C0.53,-0.41 0.448,-0.51 0.298,-0.51C0.142,-0.51 0.054,-0.413 0.054,-0.25C0.054,-0.087 0.147,0.01 0.305,0.01C0.415,0.01 0.484,-0.032 0.52,-0.106L0.431,-0.143C0.415,-0.099 0.371,-0.075 0.305,-0.075C0.225,-0.075 0.172,-0.122 0.16,-0.21L0.526,-0.21C0.528,-0.223 0.53,-0.246 0.53,-0.265ZM0.298,-0.425C0.372,-0.425 0.419,-0.376 0.43,-0.292L0.16,-0.292C0.172,-0.378 0.22,-0.425 0.298,-0.425Z" style="fill:rgb(235,235,235);fill-rule:nonzero;"/>
                </g>
                <g transform="matrix(24,0,0,24,180.999,1197.26)">
                    <path d="M0.515,-0.07C0.488,-0.07 0.478,-0.082 0.478,-0.107L0.478,-0.333C0.478,-0.453 0.392,-0.51 0.267,-0.51C0.158,-0.51 0.081,-0.459 0.057,-0.38L0.14,-0.336C0.161,-0.399 0.207,-0.426 0.269,-0.426C0.334,-0.426 0.371,-0.387 0.371,-0.327L0.371,-0.3L0.244,-0.278C0.113,-0.255 0.049,-0.198 0.049,-0.121C0.049,-0.034 0.118,0.01 0.212,0.01C0.286,0.01 0.35,-0.017 0.381,-0.064C0.392,-0.009 0.428,0.01 0.483,0.01C0.508,0.01 0.529,0.005 0.545,-0.002L0.552,-0.074C0.541,-0.071 0.528,-0.07 0.515,-0.07ZM0.235,-0.071C0.188,-0.071 0.16,-0.091 0.16,-0.128C0.16,-0.168 0.194,-0.191 0.262,-0.204L0.371,-0.226L0.371,-0.166C0.371,-0.106 0.302,-0.071 0.235,-0.071Z" style="fill:rgb(235,235,235);fill-rule:nonzero;"/>
                </g>
                <g transform="matrix(24,0,0,24,194.679,1197.26)">
                    <path d="M0.686,-0.51C0.619,-0.51 0.546,-0.478 0.514,-0.41C0.483,-0.478 0.417,-0.51 0.345,-0.51C0.28,-0.51 0.218,-0.48 0.183,-0.417L0.178,-0.5L0.083,-0.5L0.083,0L0.19,0L0.19,-0.266C0.19,-0.378 0.26,-0.422 0.32,-0.422C0.379,-0.422 0.423,-0.389 0.423,-0.307L0.423,0L0.53,0L0.53,-0.272C0.53,-0.369 0.59,-0.422 0.66,-0.422C0.719,-0.422 0.763,-0.389 0.763,-0.307L0.763,0L0.87,0L0.87,-0.324C0.87,-0.451 0.782,-0.51 0.686,-0.51Z" style="fill:rgb(235,235,235);fill-rule:nonzero;"/>
                </g>
            </g>
            <g transform="matrix(1,0,0,1,112.549,380.354)">
                <g transform="matrix(24,0,0,24,19.8267,1173.26)">
                    <path d="M0.639,-0.66L0.54,-0.66L0.54,-0.234L0.544,-0.122L0.543,-0.122L0.478,-0.245L0.224,-0.66L0.098,-0.66L0.098,0L0.196,0L0.196,-0.426L0.192,-0.538L0.193,-0.538L0.257,-0.416L0.512,0L0.639,0L0.639,-0.66Z" style="fill:rgb(81,81,81);fill-rule:nonzero;"/>
                </g>
                <g transform="matrix(24,0,0,24,37.4907,1173.26)">
                    <path d="M0.205,-0.092L0.205,-0.288L0.495,-0.288L0.495,-0.378L0.205,-0.378L0.205,-0.568L0.576,-0.568L0.576,-0.66L0.098,-0.66L0.098,0L0.59,0L0.59,-0.092L0.205,-0.092Z" style="fill:rgb(81,81,81);fill-rule:nonzero;"/>
                </g>
                <g transform="matrix(24,0,0,24,52.7547,1173.26)">
                    <path d="M0.589,-0.66L0.03,-0.66L0.03,-0.568L0.256,-0.568L0.256,0L0.363,0L0.363,-0.568L0.589,-0.568L0.589,-0.66Z" style="fill:rgb(81,81,81);fill-rule:nonzero;"/>
                </g>
                <g transform="matrix(24,0,0,24,74.3067,1173.26)">
                    <path d="M0.453,-0.396L0.486,-0.548L0.487,-0.548L0.52,-0.396L0.625,0L0.751,0L0.944,-0.66L0.834,-0.66L0.689,-0.084L0.543,-0.66L0.433,-0.66L0.288,-0.085L0.144,-0.66L0.028,-0.66L0.222,0L0.349,0L0.453,-0.396Z" style="fill:rgb(81,81,81);fill-rule:nonzero;"/>
                </g>
                <g transform="matrix(24,0,0,24,97.6347,1173.26)">
                    <path d="M0.589,-0.66L0.03,-0.66L0.03,-0.568L0.256,-0.568L0.256,0L0.363,0L0.363,-0.568L0.589,-0.568L0.589,-0.66Z" style="fill:rgb(81,81,81);fill-rule:nonzero;"/>
                </g>
                <g transform="matrix(24,0,0,24,110.019,1173.26)">
                    <path d="M0.137,-0.135C0.091,-0.135 0.061,-0.107 0.061,-0.063C0.061,-0.019 0.091,0.01 0.137,0.01C0.183,0.01 0.212,-0.019 0.212,-0.063C0.212,-0.107 0.183,-0.135 0.137,-0.135Z" style="fill:rgb(81,81,81);fill-rule:nonzero;"/>
                </g>
                <g transform="matrix(24,0,0,24,123.987,1173.26)">
                    <path d="M0.234,-0.66C0.199,-0.61 0.087,-0.55 0.034,-0.543L0.054,-0.45C0.114,-0.463 0.175,-0.497 0.22,-0.541C0.219,-0.522 0.219,-0.504 0.219,-0.488L0.219,0L0.324,0L0.324,-0.66L0.234,-0.66Z" style="fill:rgb(81,81,81);fill-rule:nonzero;"/>
                </g>
                <g transform="matrix(24,0,0,24,134.019,1173.26)">
                    <path d="M0.314,0.01C0.481,0.01 0.569,-0.108 0.569,-0.33C0.569,-0.552 0.481,-0.67 0.314,-0.67C0.147,-0.67 0.06,-0.552 0.06,-0.33C0.06,-0.108 0.147,0.01 0.314,0.01ZM0.314,-0.081C0.218,-0.081 0.169,-0.164 0.169,-0.33C0.169,-0.496 0.218,-0.579 0.314,-0.579C0.41,-0.579 0.46,-0.496 0.46,-0.33C0.46,-0.164 0.41,-0.081 0.314,-0.081Z" style="fill:rgb(81,81,81);fill-rule:nonzero;"/>
                </g>
                <g transform="matrix(24,0,0,24,149.091,1173.26)">
                    <path d="M0.372,-0.67C0.181,-0.67 0.061,-0.54 0.061,-0.33C0.061,-0.12 0.181,0.01 0.372,0.01C0.564,0.01 0.684,-0.12 0.684,-0.33C0.684,-0.54 0.564,-0.67 0.372,-0.67ZM0.372,-0.577C0.497,-0.577 0.572,-0.487 0.572,-0.33C0.572,-0.173 0.497,-0.083 0.372,-0.083C0.248,-0.083 0.173,-0.173 0.173,-0.33C0.173,-0.487 0.248,-0.577 0.372,-0.577Z" style="fill:rgb(81,81,81);fill-rule:nonzero;"/>
                </g>
                <g transform="matrix(24,0,0,24,166.707,1173.26)">
                    <path d="M0.172,-0.091L0.571,-0.573L0.571,-0.66L0.059,-0.66L0.059,-0.569L0.449,-0.569L0.05,-0.087L0.05,0L0.583,0L0.583,-0.091L0.172,-0.091Z" style="fill:rgb(81,81,81);fill-rule:nonzero;"/>
                </g>
                <g transform="matrix(24,0,0,24,189.651,1173.26)">
                    <path d="M0.283,-0.747C0.138,-0.63 0.063,-0.472 0.063,-0.278C0.063,-0.085 0.138,0.073 0.283,0.19L0.339,0.134C0.213,0.019 0.166,-0.097 0.166,-0.278C0.166,-0.459 0.213,-0.576 0.339,-0.691L0.283,-0.747Z" style="fill:rgb(81,81,81);fill-rule:nonzero;"/>
                </g>
                <g transform="matrix(24,0,0,24,198.027,1173.26)">
                    <path d="M0.07,0L0.529,0L0.529,-0.092L0.321,-0.092C0.294,-0.092 0.237,-0.09 0.212,-0.088L0.212,-0.09C0.431,-0.23 0.517,-0.336 0.517,-0.462C0.517,-0.578 0.434,-0.67 0.288,-0.67C0.149,-0.67 0.062,-0.59 0.049,-0.465L0.142,-0.422C0.149,-0.518 0.199,-0.577 0.282,-0.577C0.36,-0.577 0.407,-0.528 0.407,-0.458C0.407,-0.348 0.323,-0.257 0.07,-0.079L0.07,0Z" style="fill:rgb(81,81,81);fill-rule:nonzero;"/>
                </g>
                <g transform="matrix(24,0,0,24,212.115,1173.26)">
                    <path d="M0.31,-0.669C0.175,-0.669 0.088,-0.601 0.088,-0.492C0.088,-0.423 0.125,-0.37 0.186,-0.345L0.186,-0.344C0.108,-0.316 0.061,-0.258 0.061,-0.177C0.061,-0.062 0.159,0.01 0.31,0.01C0.461,0.01 0.558,-0.062 0.558,-0.177C0.558,-0.26 0.511,-0.316 0.434,-0.344L0.434,-0.345C0.495,-0.371 0.531,-0.424 0.531,-0.492C0.531,-0.601 0.444,-0.669 0.31,-0.669ZM0.31,-0.579C0.38,-0.579 0.425,-0.543 0.425,-0.482C0.425,-0.422 0.379,-0.386 0.31,-0.386C0.24,-0.386 0.195,-0.422 0.195,-0.482C0.195,-0.543 0.239,-0.579 0.31,-0.579ZM0.31,-0.08C0.223,-0.08 0.169,-0.121 0.169,-0.189C0.169,-0.258 0.225,-0.299 0.31,-0.299C0.395,-0.299 0.45,-0.258 0.45,-0.189C0.45,-0.121 0.397,-0.08 0.31,-0.08Z" style="fill:rgb(81,81,81);fill-rule:nonzero;"/>
                </g>
                <g transform="matrix(24,0,0,24,226.587,1173.26)">
                    <path d="M0.293,-0.67C0.184,-0.67 0.097,-0.617 0.068,-0.52L0.166,-0.48C0.178,-0.542 0.22,-0.578 0.291,-0.578C0.361,-0.578 0.401,-0.542 0.4,-0.473C0.399,-0.406 0.358,-0.374 0.276,-0.374L0.249,-0.374L0.249,-0.289L0.279,-0.289C0.37,-0.289 0.414,-0.264 0.415,-0.192C0.416,-0.127 0.369,-0.082 0.287,-0.082C0.201,-0.082 0.163,-0.124 0.144,-0.197L0.046,-0.15C0.085,-0.043 0.163,0.01 0.283,0.01C0.427,0.01 0.523,-0.069 0.523,-0.178C0.523,-0.272 0.459,-0.332 0.384,-0.332L0.384,-0.334C0.442,-0.334 0.508,-0.395 0.508,-0.494C0.508,-0.591 0.433,-0.67 0.293,-0.67Z" style="fill:rgb(81,81,81);fill-rule:nonzero;"/>
                </g>
                <g transform="matrix(24,0,0,24,240.651,1173.26)">
                    <path d="M0.354,-0.341L0.354,-0.253L0.556,-0.253L0.556,-0.234C0.556,-0.132 0.479,-0.082 0.379,-0.082C0.244,-0.082 0.173,-0.172 0.173,-0.33C0.173,-0.487 0.253,-0.577 0.377,-0.577C0.46,-0.577 0.523,-0.54 0.549,-0.467L0.647,-0.514C0.596,-0.621 0.512,-0.67 0.375,-0.67C0.185,-0.67 0.061,-0.54 0.061,-0.33C0.061,-0.118 0.182,0.01 0.367,0.01C0.464,0.01 0.531,-0.025 0.569,-0.084L0.572,0L0.651,0L0.651,-0.341L0.354,-0.341Z" style="fill:rgb(81,81,81);fill-rule:nonzero;"/>
                </g>
                <g transform="matrix(24,0,0,24,257.547,1173.26)">
                    <path d="M0.08,-0.747L0.023,-0.691C0.15,-0.576 0.196,-0.459 0.196,-0.278C0.196,-0.097 0.15,0.019 0.023,0.134L0.08,0.19C0.224,0.073 0.299,-0.085 0.299,-0.278C0.299,-0.472 0.224,-0.63 0.08,-0.747Z" style="fill:rgb(81,81,81);fill-rule:nonzero;"/>
                </g>
            </g>
            <g transform="matrix(1,0,0,1,-14.4264,-7.54904)">
                <g transform="matrix(64.513,0,0,64.513,57.5067,1173.26)">
                    <path d="M0.32,0L-0.05,0L-0.05,-0.009L0.042,-0.009L0.213,-0.741L0.125,-0.741L0.125,-0.75L0.465,-0.75C0.556,-0.75 0.625,-0.738 0.673,-0.713C0.721,-0.688 0.745,-0.645 0.745,-0.585C0.745,-0.555 0.737,-0.529 0.721,-0.505C0.705,-0.482 0.683,-0.463 0.656,-0.446C0.629,-0.43 0.598,-0.417 0.564,-0.407C0.53,-0.397 0.496,-0.39 0.46,-0.386C0.5,-0.383 0.538,-0.375 0.573,-0.364C0.608,-0.352 0.636,-0.335 0.658,-0.311C0.679,-0.288 0.69,-0.258 0.69,-0.22C0.69,-0.183 0.679,-0.15 0.658,-0.122C0.637,-0.095 0.608,-0.072 0.573,-0.054C0.537,-0.036 0.498,-0.022 0.454,-0.013C0.41,-0.004 0.365,0 0.32,0ZM0.46,-0.741L0.428,-0.741L0.346,-0.39L0.39,-0.39C0.415,-0.39 0.438,-0.401 0.458,-0.424C0.479,-0.447 0.495,-0.477 0.507,-0.515C0.519,-0.552 0.525,-0.592 0.525,-0.635C0.525,-0.665 0.52,-0.69 0.51,-0.71C0.499,-0.731 0.483,-0.741 0.46,-0.741ZM0.376,-0.38L0.344,-0.38L0.257,-0.009L0.32,-0.009C0.344,-0.009 0.366,-0.02 0.388,-0.041C0.409,-0.062 0.426,-0.091 0.44,-0.129C0.453,-0.167 0.46,-0.21 0.46,-0.26C0.46,-0.305 0.453,-0.336 0.439,-0.353C0.425,-0.371 0.404,-0.38 0.376,-0.38Z" style="fill:rgb(235,235,235);fill-rule:nonzero;"/>
                </g>
                <g transform="matrix(64.513,0,0,64.513,105.246,1173.26)">
                    <path d="M0.662,-0.163C0.643,-0.113 0.614,-0.072 0.575,-0.039C0.537,-0.006 0.49,0.01 0.434,0.01C0.396,0.01 0.37,0.003 0.356,-0.012C0.342,-0.027 0.335,-0.047 0.335,-0.073C0.335,-0.075 0.335,-0.08 0.336,-0.086C0.336,-0.092 0.337,-0.097 0.338,-0.101L0.348,-0.143C0.337,-0.116 0.323,-0.091 0.307,-0.067C0.29,-0.044 0.271,-0.025 0.249,-0.011C0.227,0.003 0.203,0.01 0.176,0.01C0.153,0.01 0.129,0.005 0.105,-0.005C0.08,-0.016 0.059,-0.033 0.042,-0.058C0.026,-0.083 0.017,-0.117 0.017,-0.16C0.017,-0.21 0.026,-0.254 0.043,-0.292C0.06,-0.331 0.082,-0.363 0.109,-0.389C0.136,-0.416 0.165,-0.435 0.196,-0.449C0.227,-0.462 0.256,-0.469 0.283,-0.469C0.32,-0.469 0.347,-0.455 0.362,-0.427C0.378,-0.399 0.386,-0.363 0.386,-0.318L0.427,-0.46L0.61,-0.46L0.498,-0.064C0.498,-0.061 0.497,-0.058 0.497,-0.054C0.496,-0.051 0.496,-0.048 0.496,-0.046C0.496,-0.04 0.498,-0.035 0.501,-0.031C0.504,-0.027 0.508,-0.025 0.515,-0.025C0.532,-0.025 0.55,-0.032 0.568,-0.046C0.587,-0.059 0.603,-0.077 0.619,-0.099C0.634,-0.12 0.646,-0.143 0.654,-0.166L0.662,-0.163ZM0.379,-0.314C0.379,-0.34 0.376,-0.364 0.37,-0.383C0.363,-0.403 0.354,-0.413 0.34,-0.413C0.329,-0.413 0.317,-0.404 0.303,-0.386C0.29,-0.368 0.276,-0.344 0.264,-0.314C0.252,-0.284 0.241,-0.252 0.233,-0.217C0.225,-0.182 0.221,-0.148 0.221,-0.114C0.221,-0.094 0.224,-0.078 0.231,-0.066C0.237,-0.053 0.246,-0.047 0.256,-0.047C0.271,-0.047 0.286,-0.056 0.3,-0.074C0.315,-0.091 0.328,-0.114 0.34,-0.141C0.351,-0.169 0.361,-0.198 0.368,-0.229C0.375,-0.26 0.379,-0.288 0.379,-0.314Z" style="fill:rgb(235,235,235);fill-rule:nonzero;"/>
                </g>
                <g transform="matrix(64.513,0,0,64.513,148.008,1173.26)">
                    <path d="M0.135,-0.451L0.062,-0.451L0.062,-0.46L0.322,-0.46L0.287,-0.308C0.298,-0.336 0.31,-0.362 0.325,-0.387C0.34,-0.412 0.358,-0.432 0.379,-0.447C0.4,-0.462 0.424,-0.47 0.452,-0.47C0.474,-0.47 0.495,-0.465 0.515,-0.454C0.535,-0.443 0.552,-0.428 0.565,-0.408C0.578,-0.388 0.584,-0.365 0.584,-0.339C0.584,-0.31 0.575,-0.284 0.556,-0.261C0.537,-0.239 0.51,-0.228 0.476,-0.228C0.445,-0.228 0.419,-0.238 0.398,-0.257C0.377,-0.277 0.367,-0.302 0.367,-0.333C0.367,-0.361 0.377,-0.385 0.397,-0.407C0.417,-0.428 0.444,-0.439 0.479,-0.439C0.496,-0.439 0.51,-0.435 0.52,-0.427C0.531,-0.419 0.538,-0.411 0.543,-0.402C0.535,-0.422 0.521,-0.437 0.502,-0.446C0.483,-0.455 0.465,-0.46 0.448,-0.46C0.421,-0.46 0.398,-0.451 0.377,-0.433C0.357,-0.415 0.339,-0.392 0.324,-0.365C0.309,-0.337 0.297,-0.307 0.286,-0.277C0.276,-0.246 0.268,-0.219 0.261,-0.193L0.217,0L0.027,0L0.135,-0.451Z" style="fill:rgb(235,235,235);fill-rule:nonzero;"/>
                </g>
                <g transform="matrix(64.513,0,0,64.513,182.831,1173.26)">
                    <path d="M0.209,-0.741L0.133,-0.741L0.133,-0.75L0.401,-0.75L0.3,-0.312C0.321,-0.368 0.347,-0.408 0.377,-0.432C0.408,-0.457 0.44,-0.469 0.473,-0.469C0.49,-0.469 0.507,-0.467 0.525,-0.462C0.544,-0.457 0.561,-0.449 0.577,-0.438C0.592,-0.426 0.605,-0.41 0.615,-0.389C0.625,-0.368 0.63,-0.342 0.63,-0.31C0.63,-0.258 0.62,-0.211 0.6,-0.172C0.581,-0.132 0.554,-0.098 0.521,-0.071C0.488,-0.044 0.45,-0.024 0.408,-0.01C0.366,0.003 0.323,0.01 0.278,0.01C0.258,0.01 0.236,0.006 0.212,-0.001C0.188,-0.009 0.164,-0.022 0.139,-0.04C0.114,-0.059 0.09,-0.086 0.067,-0.12L0.209,-0.741ZM0.249,-0.09C0.249,-0.068 0.252,-0.048 0.257,-0.03C0.262,-0.011 0.27,-0.002 0.28,-0.002C0.291,-0.002 0.303,-0.009 0.316,-0.024C0.329,-0.038 0.342,-0.058 0.355,-0.082C0.368,-0.106 0.379,-0.133 0.39,-0.163C0.401,-0.192 0.41,-0.222 0.416,-0.253C0.423,-0.284 0.426,-0.312 0.426,-0.339C0.426,-0.356 0.423,-0.372 0.417,-0.388C0.41,-0.404 0.402,-0.412 0.391,-0.412C0.374,-0.412 0.356,-0.397 0.335,-0.367C0.315,-0.337 0.298,-0.295 0.284,-0.242L0.249,-0.09Z" style="fill:rgb(235,235,235);fill-rule:nonzero;"/>
                </g>
                <g transform="matrix(64.513,0,0,64.513,226.113,1173.26)">
                    <path d="M0.221,-0.091C0.221,-0.069 0.227,-0.051 0.239,-0.036C0.251,-0.021 0.266,-0.014 0.286,-0.014C0.304,-0.014 0.325,-0.019 0.348,-0.031C0.371,-0.042 0.395,-0.057 0.418,-0.077C0.441,-0.096 0.46,-0.118 0.477,-0.143L0.486,-0.143C0.47,-0.118 0.448,-0.093 0.422,-0.07C0.395,-0.046 0.365,-0.027 0.332,-0.012C0.298,0.003 0.263,0.01 0.226,0.01C0.189,0.01 0.155,0.005 0.123,-0.005C0.091,-0.015 0.066,-0.032 0.046,-0.055C0.027,-0.078 0.017,-0.11 0.017,-0.15C0.017,-0.196 0.027,-0.238 0.046,-0.277C0.065,-0.316 0.09,-0.35 0.122,-0.379C0.154,-0.407 0.19,-0.43 0.229,-0.446C0.268,-0.462 0.308,-0.47 0.348,-0.47C0.382,-0.47 0.414,-0.466 0.443,-0.458C0.472,-0.45 0.496,-0.438 0.514,-0.422C0.532,-0.406 0.541,-0.386 0.541,-0.362C0.541,-0.338 0.534,-0.317 0.52,-0.299C0.507,-0.281 0.488,-0.266 0.466,-0.254C0.443,-0.242 0.418,-0.232 0.391,-0.224C0.364,-0.217 0.336,-0.211 0.309,-0.208C0.281,-0.204 0.256,-0.202 0.233,-0.201C0.229,-0.182 0.226,-0.163 0.224,-0.144C0.222,-0.126 0.221,-0.108 0.221,-0.091ZM0.352,-0.462C0.343,-0.462 0.333,-0.455 0.322,-0.44C0.311,-0.426 0.3,-0.407 0.289,-0.383C0.278,-0.359 0.268,-0.332 0.258,-0.302C0.249,-0.272 0.241,-0.242 0.235,-0.211C0.247,-0.214 0.262,-0.22 0.278,-0.229C0.294,-0.238 0.309,-0.25 0.324,-0.265C0.339,-0.28 0.351,-0.299 0.361,-0.321C0.37,-0.343 0.375,-0.368 0.375,-0.398C0.375,-0.411 0.374,-0.425 0.371,-0.44C0.368,-0.455 0.362,-0.462 0.352,-0.462Z" style="fill:rgb(235,235,235);fill-rule:nonzero;"/>
                </g>
                <g transform="matrix(64.513,0,0,64.513,262.039,1173.26)">
                    <path d="M0.135,-0.451L0.062,-0.451L0.062,-0.46L0.322,-0.46L0.287,-0.308C0.298,-0.336 0.31,-0.362 0.325,-0.387C0.34,-0.412 0.358,-0.432 0.379,-0.447C0.4,-0.462 0.424,-0.47 0.452,-0.47C0.474,-0.47 0.495,-0.465 0.515,-0.454C0.535,-0.443 0.552,-0.428 0.565,-0.408C0.578,-0.388 0.584,-0.365 0.584,-0.339C0.584,-0.31 0.575,-0.284 0.556,-0.261C0.537,-0.239 0.51,-0.228 0.476,-0.228C0.445,-0.228 0.419,-0.238 0.398,-0.257C0.377,-0.277 0.367,-0.302 0.367,-0.333C0.367,-0.361 0.377,-0.385 0.397,-0.407C0.417,-0.428 0.444,-0.439 0.479,-0.439C0.496,-0.439 0.51,-0.435 0.52,-0.427C0.531,-0.419 0.538,-0.411 0.543,-0.402C0.535,-0.422 0.521,-0.437 0.502,-0.446C0.483,-0.455 0.465,-0.46 0.448,-0.46C0.421,-0.46 0.398,-0.451 0.377,-0.433C0.357,-0.415 0.339,-0.392 0.324,-0.365C0.309,-0.337 0.297,-0.307 0.286,-0.277C0.276,-0.246 0.268,-0.219 0.261,-0.193L0.217,0L0.027,0L0.135,-0.451Z" style="fill:rgb(235,235,235);fill-rule:nonzero;"/>
                </g>
                <g transform="matrix(64.513,0,0,64.513,314.283,1173.26)">
                    <path d="M-0.018,0.01L-0.025,0.01L0.033,-0.255L0.042,-0.255C0.049,-0.229 0.058,-0.202 0.069,-0.172C0.081,-0.142 0.095,-0.114 0.113,-0.088C0.13,-0.061 0.152,-0.039 0.177,-0.022C0.202,-0.006 0.233,0.003 0.268,0.003C0.316,0.003 0.353,-0.01 0.379,-0.035C0.405,-0.06 0.418,-0.091 0.418,-0.129C0.418,-0.159 0.41,-0.183 0.395,-0.202C0.38,-0.221 0.361,-0.236 0.337,-0.249C0.313,-0.262 0.287,-0.274 0.26,-0.286C0.234,-0.298 0.208,-0.312 0.184,-0.329C0.16,-0.345 0.141,-0.367 0.126,-0.393C0.111,-0.419 0.103,-0.453 0.103,-0.495C0.103,-0.538 0.112,-0.575 0.129,-0.608C0.146,-0.641 0.169,-0.669 0.197,-0.691C0.226,-0.714 0.257,-0.731 0.29,-0.743C0.324,-0.754 0.357,-0.76 0.39,-0.76C0.417,-0.76 0.441,-0.755 0.463,-0.745C0.484,-0.736 0.503,-0.722 0.52,-0.706L0.659,-0.76L0.666,-0.76L0.609,-0.515L0.6,-0.515C0.59,-0.556 0.577,-0.594 0.559,-0.63C0.542,-0.665 0.521,-0.694 0.495,-0.715C0.469,-0.737 0.437,-0.748 0.4,-0.748C0.378,-0.748 0.357,-0.744 0.338,-0.735C0.319,-0.726 0.303,-0.714 0.291,-0.698C0.279,-0.682 0.273,-0.663 0.273,-0.641C0.273,-0.618 0.281,-0.598 0.296,-0.582C0.311,-0.565 0.331,-0.551 0.356,-0.538C0.38,-0.525 0.406,-0.511 0.433,-0.498C0.46,-0.484 0.486,-0.468 0.51,-0.449C0.535,-0.431 0.555,-0.408 0.57,-0.381C0.585,-0.354 0.593,-0.32 0.593,-0.28C0.593,-0.245 0.585,-0.21 0.569,-0.175C0.554,-0.141 0.532,-0.109 0.503,-0.08C0.475,-0.051 0.442,-0.028 0.403,-0.011C0.365,0.006 0.323,0.015 0.278,0.015C0.246,0.015 0.218,0.009 0.193,-0.003C0.169,-0.014 0.148,-0.03 0.13,-0.049L-0.018,0.01Z" style="fill:rgb(235,235,235);fill-rule:nonzero;"/>
                </g>
                <g transform="matrix(64.513,0,0,64.513,353.69,1173.26)">
                    <path d="M0.395,-0.163C0.376,-0.113 0.347,-0.072 0.308,-0.039C0.27,-0.006 0.222,0.01 0.167,0.01C0.129,0.01 0.099,0.003 0.079,-0.01C0.058,-0.024 0.048,-0.048 0.048,-0.083C0.048,-0.085 0.048,-0.089 0.049,-0.094C0.049,-0.098 0.05,-0.102 0.051,-0.105L0.138,-0.451L0.057,-0.451L0.057,-0.46L0.141,-0.46L0.166,-0.56L0.355,-0.56L0.33,-0.46L0.427,-0.46L0.427,-0.451L0.328,-0.451L0.231,-0.064C0.23,-0.061 0.23,-0.058 0.23,-0.054C0.229,-0.051 0.229,-0.048 0.229,-0.046C0.229,-0.033 0.235,-0.027 0.247,-0.027C0.266,-0.027 0.284,-0.034 0.302,-0.048C0.321,-0.062 0.337,-0.08 0.352,-0.101C0.367,-0.122 0.379,-0.144 0.387,-0.166L0.395,-0.163Z" style="fill:rgb(235,235,235);fill-rule:nonzero;"/>
                </g>
                <g transform="matrix(64.513,0,0,64.513,380.655,1173.26)">
                    <path d="M0.166,0.26C0.129,0.26 0.099,0.252 0.077,0.237C0.054,0.221 0.038,0.203 0.027,0.181C0.017,0.159 0.012,0.139 0.012,0.121C0.012,0.09 0.022,0.062 0.041,0.039C0.061,0.016 0.085,0.005 0.114,0.005C0.142,0.005 0.164,0.013 0.183,0.03C0.201,0.047 0.21,0.07 0.21,0.099C0.21,0.126 0.201,0.148 0.184,0.166C0.167,0.184 0.144,0.193 0.117,0.193C0.093,0.193 0.073,0.187 0.056,0.175C0.04,0.163 0.029,0.148 0.023,0.131C0.024,0.145 0.029,0.161 0.038,0.18C0.047,0.199 0.062,0.215 0.083,0.229C0.103,0.244 0.131,0.251 0.165,0.251C0.193,0.251 0.224,0.241 0.258,0.22C0.292,0.199 0.326,0.171 0.362,0.138C0.343,0.106 0.324,0.069 0.307,0.028C0.29,-0.014 0.273,-0.057 0.258,-0.101C0.243,-0.146 0.229,-0.189 0.217,-0.23C0.204,-0.271 0.193,-0.307 0.184,-0.338C0.175,-0.369 0.167,-0.392 0.162,-0.406C0.16,-0.412 0.157,-0.417 0.151,-0.423C0.146,-0.429 0.139,-0.432 0.13,-0.432C0.117,-0.432 0.102,-0.424 0.084,-0.409C0.067,-0.393 0.053,-0.372 0.043,-0.343L0.035,-0.347C0.051,-0.392 0.077,-0.424 0.113,-0.442C0.149,-0.461 0.187,-0.47 0.228,-0.47C0.268,-0.47 0.299,-0.461 0.322,-0.443C0.344,-0.426 0.361,-0.4 0.371,-0.366C0.378,-0.344 0.386,-0.318 0.394,-0.288C0.402,-0.259 0.411,-0.228 0.421,-0.196C0.431,-0.164 0.443,-0.133 0.455,-0.103C0.468,-0.072 0.483,-0.044 0.5,-0.019C0.533,-0.063 0.563,-0.107 0.59,-0.151C0.617,-0.195 0.638,-0.235 0.654,-0.271C0.669,-0.307 0.677,-0.335 0.677,-0.355L0.677,-0.361C0.672,-0.336 0.661,-0.315 0.644,-0.299C0.626,-0.284 0.603,-0.276 0.575,-0.276C0.553,-0.276 0.534,-0.281 0.519,-0.291C0.504,-0.301 0.492,-0.313 0.484,-0.328C0.476,-0.343 0.472,-0.358 0.472,-0.373C0.472,-0.398 0.481,-0.421 0.499,-0.44C0.517,-0.46 0.543,-0.47 0.576,-0.47C0.611,-0.47 0.639,-0.459 0.659,-0.436C0.678,-0.413 0.688,-0.387 0.688,-0.356C0.688,-0.337 0.682,-0.313 0.669,-0.281C0.657,-0.25 0.639,-0.216 0.617,-0.177C0.595,-0.139 0.57,-0.1 0.542,-0.059C0.513,-0.019 0.482,0.021 0.45,0.059C0.418,0.097 0.385,0.131 0.351,0.161C0.318,0.191 0.285,0.215 0.254,0.233C0.222,0.251 0.193,0.26 0.166,0.26Z" style="fill:rgb(235,235,235);fill-rule:nonzero;"/>
                </g>
                <g transform="matrix(64.513,0,0,64.513,424.771,1173.26)">
                    <path d="M0.386,-0.163C0.367,-0.113 0.338,-0.072 0.299,-0.039C0.261,-0.006 0.213,0.01 0.158,0.01C0.12,0.01 0.091,0.003 0.071,-0.01C0.052,-0.024 0.042,-0.048 0.042,-0.083C0.042,-0.09 0.043,-0.097 0.044,-0.105L0.19,-0.741L0.098,-0.741L0.098,-0.75L0.381,-0.75L0.224,-0.064C0.224,-0.061 0.223,-0.058 0.223,-0.054C0.222,-0.051 0.222,-0.048 0.222,-0.046C0.222,-0.04 0.223,-0.035 0.226,-0.031C0.229,-0.026 0.233,-0.024 0.24,-0.024C0.254,-0.024 0.27,-0.03 0.287,-0.042C0.305,-0.054 0.322,-0.071 0.339,-0.092C0.355,-0.114 0.368,-0.138 0.378,-0.166L0.386,-0.163Z" style="fill:rgb(235,235,235);fill-rule:nonzero;"/>
                </g>
                <g transform="matrix(64.513,0,0,64.513,451.672,1173.26)">
                    <path d="M0.221,-0.091C0.221,-0.069 0.227,-0.051 0.239,-0.036C0.251,-0.021 0.266,-0.014 0.286,-0.014C0.304,-0.014 0.325,-0.019 0.348,-0.031C0.371,-0.042 0.395,-0.057 0.418,-0.077C0.441,-0.096 0.46,-0.118 0.477,-0.143L0.486,-0.143C0.47,-0.118 0.448,-0.093 0.422,-0.07C0.395,-0.046 0.365,-0.027 0.332,-0.012C0.298,0.003 0.263,0.01 0.226,0.01C0.189,0.01 0.155,0.005 0.123,-0.005C0.091,-0.015 0.066,-0.032 0.046,-0.055C0.027,-0.078 0.017,-0.11 0.017,-0.15C0.017,-0.196 0.027,-0.238 0.046,-0.277C0.065,-0.316 0.09,-0.35 0.122,-0.379C0.154,-0.407 0.19,-0.43 0.229,-0.446C0.268,-0.462 0.308,-0.47 0.348,-0.47C0.382,-0.47 0.414,-0.466 0.443,-0.458C0.472,-0.45 0.496,-0.438 0.514,-0.422C0.532,-0.406 0.541,-0.386 0.541,-0.362C0.541,-0.338 0.534,-0.317 0.52,-0.299C0.507,-0.281 0.488,-0.266 0.466,-0.254C0.443,-0.242 0.418,-0.232 0.391,-0.224C0.364,-0.217 0.336,-0.211 0.309,-0.208C0.281,-0.204 0.256,-0.202 0.233,-0.201C0.229,-0.182 0.226,-0.163 0.224,-0.144C0.222,-0.126 0.221,-0.108 0.221,-0.091ZM0.352,-0.462C0.343,-0.462 0.333,-0.455 0.322,-0.44C0.311,-0.426 0.3,-0.407 0.289,-0.383C0.278,-0.359 0.268,-0.332 0.258,-0.302C0.249,-0.272 0.241,-0.242 0.235,-0.211C0.247,-0.214 0.262,-0.22 0.278,-0.229C0.294,-0.238 0.309,-0.25 0.324,-0.265C0.339,-0.28 0.351,-0.299 0.361,-0.321C0.37,-0.343 0.375,-0.368 0.375,-0.398C0.375,-0.411 0.374,-0.425 0.371,-0.44C0.368,-0.455 0.362,-0.462 0.352,-0.462Z" style="fill:rgb(235,235,235);fill-rule:nonzero;"/>
                </g>
            </g>
        </g>
    </g>
</svg>
